<?xml version="1.0" encoding="UTF-8"?>
<svg xmlns="http://www.w3.org/2000/svg" xmlns:xlink="http://www.w3.org/1999/xlink" version="1.1" id="Layer_1" x="0px" y="0px" viewBox="0 0 29 29" xml:space="preserve"><style type="text/css">.st0{fill:none;stroke:#050505;stroke-width:2;stroke-miterlimit:10;} .st1{fill:none;stroke:#050505;stroke-width:2;stroke-linecap:round;stroke-linejoin:round;stroke-miterlimit:10;} .st2{fill:none;stroke:#050505;stroke-miterlimit:10;} .st3{fill:none;stroke:#050505;stroke-width:2;stroke-miterlimit:10;stroke-dasharray:1.7411,1.7411;} .st4{fill:none;stroke:#050505;stroke-width:2;stroke-linecap:round;stroke-linejoin:round;stroke-dasharray:2.0261,4.0522;}</style><path class="st0" d="M23.5 10h-4.343a3.995 3.995 0 0 0-2.828 1.172l-6.657 6.657A4.003 4.003 0 0 1 6.843 19H2.5" fill="none" stroke="#000" stroke-miterlimit="10" stroke-width="2"/><path class="st0" d="M2.5 10h4.343c1.061 0 2.078.421 2.828 1.172l6.657 6.657a4.001 4.001 0 0 0 2.828 1.172H23.5" fill="none" stroke="#000" stroke-miterlimit="10" stroke-width="2"/><path d="M21.5 12.412V7.588c0-.368.401-.596.717-.408l4.052 2.412a.474.474 0 0 1 0 .815l-4.052 2.412a.474.474 0 0 1-.717-.407z"/><path d="M21.5 21.412v-4.823c0-.368.401-.596.717-.408l4.052 2.412a.474.474 0 0 1 0 .815l-4.052 2.412a.475.475 0 0 1-.717-.408z"/><metadata><rdf:RDF xmlns:rdf="http://www.w3.org/1999/02/22-rdf-syntax-ns#" xmlns:rdfs="http://www.w3.org/2000/01/rdf-schema#" xmlns:dc="http://purl.org/dc/elements/1.1/"/></metadata></svg>